<svg version="1.1" xmlns="http://www.w3.org/2000/svg" xmlns:xlink="http://www.w3.org/1999/xlink" width="441.88969" height="320.38073" viewBox="0,0,441.88969,320.38073"><g transform="translate(-20.15385,-13.1875)"><g data-paper-data="{&quot;isPaintingLayer&quot;:true}" fill-rule="nonzero" stroke-linecap="butt" stroke-linejoin="miter" stroke-miterlimit="10" stroke-dasharray="" stroke-dashoffset="0" style="mix-blend-mode: normal"><path d="M57.14817,304.22898c1.19476,-1.19476 2.38953,-1.97338 3.54806,-2.44455l1.23114,2.15449l0.12615,-0.07208l0.05769,0.34922c0.13828,0.13676 0.28065,0.27695 0.4269,0.41969c-1.49385,-0.39362 -3.66809,-0.67808 -5.83687,0.0611c0.14205,-0.1559 0.29094,-0.31189 0.44693,-0.46788z" fill="#ffffff" stroke="none" stroke-width="0.5"/><path d="M86.80837,23.37967c-3.65979,0.03521 -6.74055,0.50563 -10.32293,1.13363c-3.43994,0.60303 -6.63519,2.05138 -9.99768,3.01492c-3.38449,0.96985 -6.55873,2.28403 -9.79831,3.65108c-3.09624,1.30656 -6.71755,2.42555 -9.46932,4.38073c-2.88323,2.04189 -5.72904,4.00109 -8.79578,5.75749c-3.1192,1.78644 -5.48605,4.16069 -8.40449,6.17574c-2.63772,1.82123 -5.52473,4.40941 -6.64699,7.57095c-1.12276,3.16294 -1.47374,6.86413 -2.1515,10.18818c-0.04784,3.4914 -0.06719,6.98092 -0.0676,10.4727c-0.00002,3.57709 0.07406,6.85818 0.75057,10.37428c0.81657,3.31473 1.76936,6.79297 3.27852,9.85922c1.4429,2.93162 3.3147,6.33291 5.59617,8.71859c2.53953,2.65554 5.21572,4.29331 8.24217,6.29694c2.42521,1.60559 6.65763,3.68892 9.52722,3.94751c3.30885,1.34098 6.93871,0.87068 10.20677,1.95964c3.13908,1.04598 7.03979,0.47157 10.344,0.47158c3.5,0 7,0 10.5,0c3.5,0 7,0 10.5,0c2.65815,0 5.20235,0.06993 7.76568,-0.23571c-0.03311,0.1737 -0.06359,0.34784 -0.09144,0.52222c-2.53209,0.28995 -5.05387,0.21357 -7.67416,0.21357c-3.5,0 -7,0 -10.5,0c-3.5,0 -7,0 -10.5,0c-3.36384,0 -7.30469,0.56819 -10.50207,-0.49722c-3.25137,-1.0834 -6.88258,-0.57207 -10.16632,-1.94802c-2.88307,-0.22568 -7.25094,-2.40471 -9.68561,-4.01656c-3.05521,-2.02267 -5.76349,-3.68712 -8.32752,-6.36828c-2.3158,-2.42159 -4.21787,-5.86575 -5.68341,-8.84337c-1.52573,-3.09991 -2.49393,-6.62179 -3.31832,-9.97295c-0.6844,-3.5509 -0.76219,-6.86957 -0.76217,-10.48138c0.00041,-3.50953 0.00768,-7.01723 0.07048,-10.52628c0.67036,-3.35966 1.04317,-7.10649 2.17743,-10.30183c1.15395,-3.25081 4.11837,-5.94006 6.83409,-7.81514c2.92798,-2.02164 5.30925,-4.40506 8.44009,-6.19817c3.05293,-1.74849 5.88497,-3.6989 8.7553,-5.73165c2.79286,-1.9719 6.42768,-3.10991 9.56389,-4.43335c3.25792,-1.37479 6.45123,-2.69571 9.85497,-3.67107c3.38003,-0.96857 6.59028,-2.42043 10.04908,-3.02676c3.60303,-0.63162 6.72324,-1.1057 10.40446,-1.14111c2.64159,-0.02541 5.20602,-0.46489 7.79883,-0.65473c-0.01772,0.16465 -0.0332,0.33256 -0.0464,0.5038c-2.57513,0.1927 -5.12304,0.62555 -7.74771,0.65081z" fill="#000000" stroke="#000000" stroke-width="1"/><path d="" fill="#000000" stroke="#000000" stroke-width="1"/><path d="M429.04883,97.28963c1.88908,-1.7053 4.83039,-1.19316 6.25968,-2.71454c0.72415,-0.7708 2.00729,0.01905 2.30116,-1.33105c0.76113,-2.85419 5.55092,-5.19711 7.59189,-7.23358c2.57843,-2.57274 5.87097,-3.31236 7.60719,-6.63829c0.9667,-1.49013 2.70882,-3.30294 3.27562,-4.96947c0.48711,-1.43221 0.738,-2.87099 1.38378,-4.28138c0.87252,-1.87979 2.24647,-4.14258 2.64799,-6.10979c0.25115,-1.23049 0.11253,-2.21342 0.58145,-3.44005c0.54638,-1.40054 -0.04515,-2.99408 0.25475,-4.42716c0.49376,-2.35939 1.00935,-3.15982 0.05901,-5.58785c-0.12282,-3.03297 -0.7656,-7.06579 -3.03626,-9.46251c-2.43467,-2.45702 -4.02733,-5.62704 -6.51642,-8.12614c-2.37565,-2.37607 -5.3808,-4.05736 -8.05047,-5.87976c-1.51702,-1.09629 -2.98096,-0.72469 -4.57095,-1.31165c-1.78341,-0.65836 -2.92156,-1.58128 -5.00901,-1.58487c-3.35418,-0.00576 -7.12294,-1.13905 -10.25151,-0.22571c-3.31943,0.95453 -7.1034,-0.36798 -10.46097,0.4556c-3.42287,0.8396 -6.98999,0.56953 -10.50039,0.56954c-3.55776,0.00001 -6.86548,-0.01496 -10.26467,1.09257c-2.28486,0.74445 -4.55479,1.41028 -6.78431,2.14269c-0.00912,-0.2349 -0.02532,-0.40996 -0.04973,-0.50959c2.19707,-0.71917 4.43202,-1.37624 6.67919,-2.10842c3.44592,-1.12275 6.81324,-1.11716 10.41957,-1.11716c3.46832,-0.00001 7,0.27425 10.38128,-0.55515c3.34441,-0.82035 7.15188,0.52638 10.43996,-0.44997c3.18591,-0.93007 6.98531,0.19983 10.39249,0.20568c2.15659,0.00371 3.34179,0.93674 5.18131,1.6158c1.59513,0.58885 3.14656,0.30605 4.68617,1.37224c2.67255,1.97037 5.6764,3.49499 8.11603,5.93504c2.49091,2.50092 4.08675,5.67391 6.52158,8.13139c2.2988,2.42611 3.08813,6.62241 3.16652,9.70778c1.00504,2.458 0.44106,3.4036 -0.05896,5.79292c-0.30758,1.46973 0.26822,3.05149 -0.27711,4.50328c-0.46123,1.20652 -0.31138,2.14327 -0.55853,3.3612c-0.40689,2.0051 -1.81284,4.28644 -2.68334,6.21826c-0.63783,1.39303 -0.86974,2.82818 -1.36599,4.23705c-0.60418,1.71528 -2.31871,3.52394 -3.31619,5.05768c-1.75854,3.37809 -5.07589,4.13599 -7.68586,6.74021c-1.86212,1.85802 -6.86151,4.38282 -7.45999,7.00092c-0.42781,1.56202 -1.76874,0.70615 -2.40755,1.53627c-1.33855,1.73938 -4.44057,1.07765 -6.30331,2.75917c-0.53341,0.48151 -1.18179,0.90912 -1.89933,1.29485c-0.04757,-0.04121 -0.09354,-0.08199 -0.13772,-0.12236c-0.0828,-0.07566 -0.16152,-0.15549 -0.23696,-0.23864c0.7355,-0.38691 1.39882,-0.8175 1.9389,-1.30505z" fill="#000000" stroke="#000000" stroke-width="1"/><path d="M440.15143,239.54971c-0.35993,-0.98331 -1.30053,-1.37521 -1.58654,-2.51383c0.10714,-2.15993 -3.26735,-4.4943 -4.52954,-6.15095c-0.50513,-0.66299 -0.73262,-1.47022 -1.31486,-2.08186c-0.12771,-0.1352 -0.25344,-0.27223 -0.37738,-0.41088c0.10022,-0.1392 0.19696,-0.28109 0.29007,-0.42553c0.14764,0.1666 0.29779,0.33108 0.45084,0.49307c1.77785,1.89482 5.75647,6.00947 5.97598,8.506c0.27714,1.07662 1.20448,1.4381 1.56102,2.41213c0.73152,1.99847 1.40077,3.96302 1.57234,6.10102c-0.16758,-0.00903 -0.33526,-0.01481 -0.50292,-0.01728c-0.17358,-2.07596 -0.82199,-3.95307 -1.539,-5.91192z" fill="#000000" stroke="#000000" stroke-width="1"/><path d="M73.14874,199.94791c3.29595,-1.17394 6.44881,-2.64006 9.79179,-3.75429c3.30731,-1.10234 6.6269,-2.43974 10.04801,-3.12107c3.38913,-0.67496 6.88238,-1.67869 10.26917,-2.17428c3.50513,-0.50723 6.80723,-1.22752 10.22256,-2.16357c3.20798,-0.86737 7.03923,-0.99894 10.37737,-1.57607c3.43208,-0.59337 6.86077,-1.75626 10.37116,-1.76259c3.54649,-0.00639 6.9317,-0.79762 10.41251,-0.7992c3.48973,-0.00158 6.85943,-0.79962 10.41019,-0.79962c3.5,0 7,0 10.5,0c3.49894,0 6.99898,0.02507 10.49779,-0.00565c0.27048,-0.00237 0.57152,-0.02956 0.89645,-0.07409c-0.04114,0.17772 -0.07404,0.35859 -0.09828,0.54219c-0.26341,0.0182 -0.52786,0.02945 -0.79382,0.03179c-3.50027,0.03071 -7.00177,0.00567 -10.50217,0.00567c-3.5,0 -7,0 -10.5,0c-3.55184,0 -6.91736,0.79801 -10.40996,0.79962c-3.47801,0.00158 -6.86653,0.79282 -10.41184,0.7992c-3.47986,0.00627 -6.8843,1.16701 -10.28688,1.75528c-3.30827,0.57196 -7.16208,0.68402 -10.33038,1.56559c-3.43452,0.94131 -6.75825,1.66611 -10.28312,2.1762c-3.37404,0.48234 -6.86685,1.49741 -10.24312,2.16981c-3.40019,0.67716 -6.7004,2.00942 -9.98756,3.10504c-3.34018,1.1133 -6.48883,2.57797 -9.78213,3.75096c-3.06076,1.09017 -5.90283,3.06627 -8.7061,4.76835c0.00961,-0.20005 0.01605,-0.39912 0.01923,-0.5971c2.74232,-1.67854 5.52728,-3.57655 8.51913,-4.64217z" fill="#000000" stroke="#000000" stroke-width="1"/><path d="" fill="#000000" stroke="none" stroke-width="0.5"/><path d="" fill="#000000" stroke="none" stroke-width="0.5"/><path d="" fill="#000000" stroke="none" stroke-width="0.5"/><path d="" fill="#000000" stroke="none" stroke-width="0.5"/><path d="" fill="#000000" stroke="none" stroke-width="0.5"/><path d="M441.92973,299.53803c0.02018,-2.20459 0.89069,-4.20951 1.25994,-6.37144c0.82209,-4.81312 -0.62114,-9.41955 0.9665,-14.18246c1.81694,-5.25472 0.27408,-12.13796 0.27408,-17.57904c0,0 0,-0.06913 0.02099,-0.16541c-0.0003,-0.06576 -0.00045,-0.13134 -0.00045,-0.19674c0.01241,-0.91274 -0.39136,-1.78355 -0.6163,-2.66823c-0.49384,-1.94229 0.19575,-4.10721 -0.20148,-6.03031c-0.31156,-1.50831 -1.39379,-2.63381 -1.61823,-4.23398c-0.276,-1.96775 -0.06388,-4.11581 -0.06532,-6.1003l-0.63652,-0.40248c0,0 -0.50701,-0.55267 0.04566,-1.05968c0.55267,-0.50701 1.05968,0.04566 1.05968,0.04566l1.03118,1.41541c0.00477,6.59309 2.43076,12.56737 2.50134,19.0339c0,0.3014 0.00311,0.60668 0.00877,0.91539c-0.00832,0.0011 -0.01663,0.00221 -0.02494,0.00332c0.08546,5.57369 1.37593,12.14744 -0.35543,17.49682c-1.54728,4.64183 -0.13716,9.22258 -0.90889,13.9484c-0.33728,2.06538 -1.26547,4.02991 -1.24058,6.13117c0,2.75216 -1.05403,4.84662 -1.91388,7.42617l-0.71714,0.35912c-0.34577,0.61277 -0.72496,1.21514 -1.15195,1.809c0,1.5432 -0.61948,2.82803 -1.29434,4.17552c-0.79783,1.59301 -0.78475,3.27744 -1.61325,4.76358c-2.22957,3.99935 -6.46393,5.75105 -10.00941,8.09539c-1.37997,0.35605 -2.72934,1.39814 -4.06222,1.61414c-6.73323,1.0912 -13.11562,2.51332 -19.99614,2.51332c-3.12231,-0.00006 -5.97215,0.90828 -8.99048,1.24661c-3.04404,0.34121 -6.31971,-0.5256 -9.33072,-0.00603c-1.43185,0.24708 -2.69748,0.62431 -4.18348,0.63481c-6.32927,0 -12.46423,-0.60397 -18.73942,-0.62459c-0.06922,0.11659 -0.13423,0.23517 -0.1954,0.35557c-9.99648,0 -19.99297,-0.00003 -29.98945,0.00005c-10.54918,0.00099 -20.91505,0.8336 -31.43379,0.83378c-10.53631,0.0011 -20.85478,0.83377 -31.41723,0.83376c-5.11906,-0.00066 -10.01836,0.0046 -15.02722,-0.84392c-5.19811,-0.88059 -11.15855,0.04157 -16.46271,-0.27131c-10.23782,-1.96936 -21.11452,-0.52779 -31.24083,-3.09743c-2.06622,-0.07129 -3.88192,-0.56153 -5.89905,-0.79512c-2.91297,-0.33732 -6.00432,0.05867 -8.94082,-0.04867c-1.69591,-0.06199 -2.91509,-0.45726 -4.49523,-0.79591c-3.56091,-0.76316 -8.18932,0.01579 -11.84694,0.01579c-10.5,0 -21,0.00001 -31.5,0c-10.57913,-0.00004 -20.85469,-0.83379 -31.39722,-0.83379c-3.49971,0 -6.99944,-0.0029 -10.49915,0.00107c-1.21135,0.00137 -3.12502,-0.33398 -4.28668,0.02358c-2.11129,0.64987 -3.65487,0.61218 -5.92696,0.81279c-3.57573,0.31571 -6.61559,1.66395 -10.20868,1.66395c-4.56348,0 -10.81841,1.12161 -15.20806,-0.12193c-3.25883,-0.92319 -6.6101,-0.62616 -10.12174,-0.78125c-2.096,-0.09257 -3.6318,-0.76441 -5.80364,-0.76449c-2.35282,-0.0004 -5.48941,0.47199 -7.74011,-0.31873c-1.48055,-0.52015 -2.60761,-1.58248 -3.89557,-2.28692c-1.98814,-1.08739 -5.13756,-1.56093 -6.91305,-2.9512c-1.20108,-0.94049 -1.26689,-3.12695 -2.04531,-4.14707c-0.26993,-0.35375 -0.85655,-0.30211 -1.19976,-0.58533c-1.54335,-1.2736 -2.65336,-3.72541 -2.82893,-5.6257c-1.41826,-2.93192 -0.60063,-6.15377 0.17111,-9.04561c0.81569,-3.05655 -0.23453,-7.10252 -0.841,-10.01652c-0.76701,-3.68536 -0.04935,-8.42948 0.03047,-12.19661c0.32377,-3.3959 2.4967,-6.54347 3.33233,-9.89779c1.08712,-4.36378 2.11026,-8.63392 3.31913,-12.79561c0.40148,-1.38215 -0.57272,-3.31104 0.1203,-4.65486c0.4414,-0.8559 1.47591,-1.31411 1.89386,-2.18171c0.91938,-1.79297 1.26569,-3.90885 2.33735,-5.53703c2.7625,-4.19709 5.05643,-8.07179 7.44457,-12.49081c1.57667,-2.91748 2.36125,-6.92678 4.35763,-9.40101c0.93286,-1.77652 3.16017,-2.71737 3.98725,-4.29314c0.49569,-0.9444 0.28986,-2.29918 1.08484,-3.01024c0.69344,-0.62024 1.9435,-0.53194 2.47056,-1.2986c0.29524,-0.42946 0.20503,-1.0741 0.55233,-1.46267c0.63655,-0.71219 2.07353,-0.52951 2.51263,-1.3778c0.22248,-0.42979 -0.19668,-1.02315 0.02837,-1.4516c0.7743,-1.47413 1.58762,-1.07303 2.68618,-1.91942c1.76604,-1.36065 2.02888,-3.08225 4.26253,-4.20905c0,0 0.67082,-0.33541 1.00623,0.33541c0.33541,0.67082 -0.33541,1.00623 -0.33541,1.00623c-2.16067,1.06946 -2.24793,2.62521 -4.00268,4.04378c-0.16647,0.13457 -2.07185,0.94709 -2.26669,1.39654c-0.2053,0.47358 0.19325,1.10769 -0.07856,1.54649c-0.54959,0.88726 -2.00815,0.81855 -2.68218,1.61539c-0.30931,0.36567 -0.17928,0.97677 -0.46904,1.35811c-0.63233,0.83217 -1.88995,0.92573 -2.71751,1.56409c-0.90386,0.69721 -0.25456,1.72012 -0.7336,2.5795c-0.95647,1.7159 -3.08668,2.53117 -4.05911,4.41193c-0.58035,0.65303 -0.67983,1.61255 -0.94012,2.44652c-0.62386,1.99885 -2.34877,4.97058 -3.34232,6.82954c-2.37929,4.45171 -4.6459,8.4664 -7.52199,12.6191c-1.02493,1.47986 -1.37789,3.68695 -2.24381,5.37791c-0.45058,0.86604 -1.42125,1.37434 -1.91281,2.2178c-0.53358,0.91557 0.29027,3.29036 0.00583,4.34341c-1.12198,4.15388 -2.21111,8.42969 -3.30909,12.75779c-0.24843,0.97926 -0.97891,1.78491 -1.26743,2.75311c-0.29208,0.98016 -0.02447,2.06808 -0.39799,3.03525c-0.63008,1.63147 -1.47995,1.97276 -1.62377,3.82453c-0.07441,3.60249 -0.83055,8.29371 -0.06128,11.8026c0.67046,3.05814 0.87415,5.80902 0.85029,9.01652c-0.02489,3.34615 -1.87581,6.57482 -0.20193,9.95772c0.12726,1.59498 1.00635,3.79157 2.33278,4.86512c0.43191,0.34957 1.10458,0.39459 1.44224,0.83588c0.6555,0.85666 0.77371,3.12542 1.76723,3.86832c1.73451,1.29697 4.76038,1.7687 6.71496,2.82251c1.24658,0.67209 2.27293,1.67033 3.6878,2.19379c2.02186,0.74803 5.10631,0.22978 7.23239,0.23014c1.84679,0.00007 2.83668,0.24168 4.52983,0.71124c3.80091,1.05409 8.03984,-0.24249 11.81541,0.89451c1.19957,0.36125 3.04588,0.05813 4.28909,0.05985c3.49965,0.00484 6.99931,0.00207 10.49896,0.00207c3.5132,0 6.55237,-1.32185 10.0711,-1.65762c2.20191,-0.21012 3.61826,-0.17709 5.63772,-0.75711c1.33905,-0.3846 3.31964,-0.08401 4.7118,-0.08559c3.50028,-0.00397 7.00057,-0.00107 10.50085,-0.00107c10.54328,0 20.81809,0.83375 31.39722,0.83379c10.5,0.00001 21,0 31.5,0c10.58955,0 20.85454,1.21795 31.39359,1.6389c10.14108,2.51482 20.98004,1.10155 31.21552,3.09404c5.34426,0.30332 11.27359,-0.5755 16.52214,0.27996c4.93111,0.80371 9.74156,0.82301 14.78165,0.82367c10.56362,0.00001 20.87911,-0.83266 31.41704,-0.83376c10.51816,-0.00017 20.88473,-0.83279 31.4338,-0.83378c9.73357,-0.00008 19.46714,-0.00006 29.2007,-0.00005c0.20071,-0.35611 0.65718,-0.35611 0.65718,-0.35611c6.39215,0 12.62645,0.62513 19.06647,0.62513c1.38874,0.0119 2.59944,-0.39845 3.94321,-0.61545c3.06202,-0.49447 6.33691,0.31302 9.42319,-0.00603c3.06654,-0.31702 5.96681,-1.25385 9.13829,-1.25391c6.84359,0 12.985,-1.65344 19.70245,-2.48428c1.15675,-0.14307 2.50831,-1.21631 3.74909,-1.51495c3.30119,-2.21981 7.1197,-3.75259 9.29423,-7.43234c0.8203,-1.38811 0.82753,-3.19085 1.58779,-4.71389c0.6329,-1.2679 1.20618,-2.47245 1.20618,-3.95117c1.16114,-1.83541 1.98202,-3.4683 2.77386,-5.29645c0.05719,0.04561 0.1148,0.09059 0.17281,0.13494c0.43732,-1.26784 0.77192,-2.53486 0.77192,-3.99811z" fill="#000000" stroke="none" stroke-width="0.5"/><path d="M88.96968,23.84283c-0.53033,-0.53033 0,-1.06066 0,-1.06066l0.99908,-0.68842c3.49292,0 5.09403,-1.50711 8.26519,-2.32369c3.6884,-0.94976 6.54184,-1.89506 10.48481,-1.89506c4.01483,0 8.61459,-0.9311 12.48394,-1.85494c1.80166,-0.43016 3.84203,0.00109 5.625,-0.46875c1.80549,-0.47578 3.39446,-0.95756 5.32856,-0.95756c9.30288,0.07005 18.79855,-1.40625 28.125,-1.40625c8.90625,0 17.81251,0 26.71876,0c4.43885,0.00005 9.38286,0.12257 13.71389,0.94718c1.80527,0.34371 3.80349,-0.28853 5.625,0c2.94801,0.46698 5.48145,1.37407 8.5276,1.42186c3.77878,0.15657 7.21248,1.45346 10.74332,2.33853c1.15064,0.28843 2.52188,-0.24304 3.69782,-0.01038c2.24415,0.44401 5.09443,1.51379 7.20472,2.39392c2.18063,0.90947 3.82442,2.09118 6.02054,2.78554c4.06757,1.37928 9.2118,5.16098 11.30325,8.71046c1.20546,2.04584 1.24341,4.14858 2.26823,6.1947c0.97665,1.94996 2.84681,4.40268 2.87556,6.73338c0.60561,1.1933 0.33396,2.40234 0.88302,3.59634c2.18996,4.76238 3.4574,10.03412 4.74198,15.15366c0.64181,2.55786 -0.08697,4.39657 1.83798,6.4478c0.01786,0.50747 0.1765,2.37282 0.41383,2.70521c0.20302,0.28435 0.78125,0.15625 0.9375,0.46875c0.20963,0.41926 -0.20963,0.98699 0,1.40625c0.15625,0.3125 0.74793,0.17526 0.9375,0.46875c0.88305,1.36706 1.21746,3.6488 2.32755,5.12767c2.25333,3.00191 5.29113,6.45246 8.99039,7.68012c6.35204,2.11735 12.61736,1.11148 19.06506,0.92624c-0.00471,-0.02589 -0.00966,-0.05174 -0.01486,-0.07756c5.05587,-0.3976 10.02494,-1.12713 15.01225,-2.38777c1.88547,0.08015 3.55899,-1.45176 5.5965,-1.87093c5.37636,-1.10608 11.77965,-4.46616 15.6191,-8.30562c0.58155,-0.26863 0.83635,-0.9862 1.35338,-1.36441c0.35875,-0.26243 0.97169,-0.02965 1.28922,-0.34069c0.21282,-0.20848 -0.20507,-0.65253 -0.02956,-0.89327c0.4727,-0.64835 1.55166,-0.68269 2.10065,-1.24396c4.54595,-4.64755 8.78318,-9.61986 11.52265,-15.20652c5.68142,-5.68142 8.90978,-13.78763 15.98367,-18.33907c0.74511,-1.44575 1.58452,-0.93039 2.51171,-1.54789c0.63634,-0.42379 0.75216,-1.38435 1.36202,-1.84544c0.68503,-0.51793 1.65295,-0.52293 2.38798,-0.96706c1.40993,-0.85192 2.51637,-1.66097 3.61397,-2.70484c0.87671,-0.8338 2.77918,-0.57428 3.41728,-1.04516c1.238,-0.91356 2.5937,-1.72553 4.19702,-2.79855c0,0 0.62404,-0.41603 1.04006,0.20801c0.41603,0.62404 -0.20801,1.04006 -0.20801,1.04006c-0.87183,0.57877 -1.50689,1.52844 -2.46998,1.93774c-0.39904,0.16959 -0.91228,-0.24452 -1.29978,-0.05001c-0.31284,0.15703 -0.17306,0.75453 -0.47072,0.93872c-0.78193,0.48385 -2.37119,0.00207 -3.14522,0.82984c-1.12171,1.19959 -2.41566,2.04361 -3.88603,2.92016c-0.84285,0.50246 -1.55086,0.35287 -2.29952,0.90794c-0.64103,0.47528 -0.78662,1.46174 -1.45048,1.90456c-0.69787,0.46549 -1.81066,0.50938 -2.17579,1.26461c-6.01844,4.13264 -9.04908,10.67433 -14.09443,15.50273c-0.71557,0.6848 -1.01128,1.93509 -1.7969,2.7207c-0.9067,1.7528 -1.61239,3.63542 -2.72506,5.42364c-0.77945,1.25269 -2.05224,1.75396 -3.01202,2.66884c-0.57055,0.54386 -0.84476,1.61755 -1.29838,2.2258c-1.24615,1.67097 -3.19417,3.6481 -4.66849,5.09635c-0.49642,0.48764 -1.51055,0.34577 -1.86025,0.94739c-0.16453,0.28305 0.20004,0.74834 -0.02956,0.98173c-0.4448,0.45216 -2.30268,1.68377 -2.9824,2.0449c-3.96022,3.96022 -10.68154,7.48974 -16.2559,8.56938c-2.21435,0.42888 -3.49553,1.80972 -5.6535,1.87907c-4.25979,1.04924 -8.49737,1.73747 -12.78376,2.17094c-0.21795,0.27841 -0.60534,0.27841 -0.60534,0.27841c-7.25302,0 -14.20898,1.39799 -21.33092,-0.97599c-3.99577,-1.33738 -7.32604,-4.96194 -9.74211,-8.23899c-1.07925,-1.46386 -1.50892,-3.94944 -2.37746,-5.20322c-0.98338,-1.41956 -2.5019,-2.96951 -2.39867,-5.26354c-2.09237,-1.92793 -1.29104,-4.1805 -1.91202,-6.67719c-1.25126,-5.03073 -2.55303,-10.15441 -4.63302,-14.84634c-0.5964,-1.34533 -0.34822,-2.59767 -0.99198,-3.90366c0.03075,-2.26479 -1.83214,-4.48631 -2.74944,-6.39163c-0.39622,-0.82299 0.11262,-1.95764 -0.40517,-2.71011c-0.18804,-0.27327 -0.70671,-0.15392 -0.9008,-0.42292c-1.11043,-1.53902 -1.31812,-3.64571 -2.39237,-5.21867c-1.46757,-2.14887 -6.58384,-5.02302 -9.01374,-5.81681c-4.18776,-1.45318 -8.30868,-4.17279 -12.99119,-5.12185c-1.2114,-0.24553 -2.59158,0.27863 -3.80218,-0.01038c-3.44408,-0.82221 -6.7648,-2.17396 -10.43891,-2.29894c-3.11805,-0.04881 -5.7192,-0.94578 -8.72767,-1.44068c-1.82109,-0.29957 -3.80428,0.32855 -5.625,0c-4.2798,-0.77228 -9.0892,-0.92786 -13.47361,-0.92782c-8.90625,0 -17.81251,0 -26.71876,0c-9.33291,0 -18.81195,1.34716 -28.125,1.40625c-1.81171,0 -3.27469,0.50934 -4.98393,0.91744c-1.80166,0.43016 -3.84203,-0.00109 -5.625,0.46875c-3.91839,1.03257 -8.74018,1.89506 -12.82856,1.89506c-6.79041,0 -12.06204,4.21875 -18.75,4.21875l0.06158,0.24908c0,0 -0.53033,0.53033 -1.06066,0z" fill="#000000" stroke="none" stroke-width="0.5"/><path d="M355.00142,69.31018c0,7.76942 -6.71272,14.06778 -14.99326,14.06778c-8.28055,0 -14.99326,-6.29836 -14.99326,-14.06778c0,-7.76942 6.71271,-14.06778 14.99326,-14.06778c8.28055,0 14.99326,6.29836 14.99326,14.06778z" fill="#00ff15" stroke="none" stroke-width="0"/><text transform="translate(333.27922,76.08527) scale(0.5,0.5)" font-size="40" xml:space="preserve" fill="#ffffff" fill-rule="nonzero" stroke="none" stroke-width="1" stroke-linecap="butt" stroke-linejoin="miter" stroke-miterlimit="10" stroke-dasharray="" stroke-dashoffset="0" font-family="Sans Serif" font-weight="normal" text-anchor="start" style="mix-blend-mode: normal"><tspan x="0" dy="0">B</tspan></text><path d="M207.69456,162.25907l-0.03849,0.72104c-0.36661,1.09982 -0.65677,2.10715 -1.29715,3.08208c-3.37426,4.90278 -5.77138,10.70804 -12.17032,12.54977c-2.70686,1.26739 -5.62465,2.22091 -8.40784,2.91269c-2.7834,0.69183 -5.28318,2.30155 -7.99701,3.20616c0,0 -0.71151,0.23717 -0.94868,-0.47434c-0.23717,-0.71151 0.47434,-0.94868 0.47434,-0.94868c2.75939,-0.9198 5.29239,-2.53067 8.12472,-3.24253c2.56875,-0.64561 5.20432,-1.51008 7.69256,-2.6358c0.15628,-0.12888 0.32952,-0.17219 0.32952,-0.17219c0.032,-0.00769 0.0639,-0.0155 0.09571,-0.02342c0.14599,-0.06829 0.29142,-0.1375 0.43625,-0.20764c0.00835,0.02746 0.01681,0.05486 0.02538,0.08222c5.7348,-1.68905 8.1711,-7.38261 11.0973,-11.87828c0.19926,-0.29339 0.35694,-0.59621 0.49141,-0.907c-0.34258,-0.07118 -0.69159,-0.12484 -1.04604,-0.15998c2.23092,-3.47204 4.80047,-7.85209 4.07227,-11.43442c0,0 -0.06899,-0.34495 0.12377,-0.60961c-0.00205,-0.12308 -0.00284,-0.24613 -0.00225,-0.36913c0.029,-5.97433 0.46875,-12.18982 0.46875,-18.28125c0,-3.40019 1.06339,-5.87037 1.89506,-9.07856c0.38901,-1.50061 -0.02006,-3.72522 -0.02006,-5.26519c0,-2.21106 0.44564,-4.35646 0.46795,-6.53568c-0.74372,-2.38043 -1.66777,-4.74026 -2.69618,-7.14863c-1.08444,-2.53958 -2.91235,-4.92535 -3.68212,-7.57428c-2.89199,-1.25663 -4.03596,-4.66716 -6.43444,-6.44547c-1.44602,-1.07212 -3.58619,-0.94058 -5.11202,-1.84544c-2.95358,-1.75157 -5.62447,-4.94494 -9.26771,-5.10133c-1.7442,-1.65678 -3.72679,-1.79795 -5.94792,-2.30007c-6.58264,-1.48811 -14.76976,-1.7682 -21.44733,-0.2662c-3.74754,1.16966 -8.46474,1.27605 -11.88902,3.04596c-1.92192,0.99338 -3.26656,2.78418 -5.14171,3.73906c-2.36617,1.20491 -4.13764,1.89445 -6.24108,3.96437c-0.98584,2.02361 -2.34392,3.85092 -3.19677,5.94223c-1.03095,2.52805 -1.15764,5.59407 -2.34375,7.96875c-1.48356,2.9702 -4.89314,6.35398 -8.0115,7.5184c-3.74096,2.40553 -8.82941,3.10185 -13.13717,3.82107c-2.73668,0.45692 -5.30809,1.58766 -8.00466,0.29433c0,0 -0.67082,-0.33541 -0.33541,-1.00623c0.33541,-0.67082 1.00623,-0.33541 1.00623,-0.33541c2.23979,1.18477 4.81964,-0.05493 7.09327,-0.43327c4.07705,-0.67845 9.23372,-1.26833 12.69856,-3.67792c6.78935,-2.44552 7.41539,-9.04861 9.6486,-14.72375c0.86559,-2.19967 2.29506,-4.1477 3.36573,-6.24527c2.28315,-2.31394 4.20708,-3.17105 6.88392,-4.47313c1.83294,-0.89158 3.2454,-2.77078 5.1524,-3.74344c3.51522,-1.79292 8.23771,-1.91378 12.06399,-3.10462c6.87264,-1.55172 15.3421,-1.314 22.11805,0.24187c2.21834,0.50937 4.57296,0.61569 6.23958,2.38743c2.45696,-0.15114 5.71563,2.38256 7.65152,3.83448c2.12223,1.59167 4.9554,1.71178 7.03125,3.28125c2.54682,1.92556 3.76678,5.07221 6.69056,6.67953c1.01769,2.77112 2.77938,5.25428 3.92938,7.97026c1.00395,2.37104 1.91311,4.69695 2.65799,7.03979c0.15854,0.2152 0.15854,0.48135 0.15854,0.48135c-0.00578,2.26211 -0.46875,4.46198 -0.46875,6.75c0,1.68504 0.38162,3.95827 -0.02006,5.60981c-0.7582,3.11735 -1.85494,5.46079 -1.85494,8.73394c0,6.17719 -0.04021,12.33458 -0.03306,18.43339c-0.20022,0.18492 -0.39287,0.37793 -0.57742,0.57849c0.57507,3.02046 -0.77024,6.37851 -2.4834,9.45624c0.06969,0.16834 0.06969,0.3222 0.06969,0.3222z" fill="#000000" stroke="none" stroke-width="0.5"/><path d="M109.06313,116.27588c0,8.30524 -7.1671,15.03798 -16.00817,15.03798c-8.84107,0 -16.00817,-6.73273 -16.00817,-15.03798c0,-8.30524 7.1671,-15.03798 16.00817,-15.03798c8.84107,0 16.00817,6.73273 16.00817,15.03798z" fill="#005eff" stroke="none" stroke-width="0"/><text transform="translate(87.08878,122.32051) scale(0.5,0.5)" font-size="40" xml:space="preserve" fill="#ffffff" fill-rule="nonzero" stroke="none" stroke-width="1" stroke-linecap="butt" stroke-linejoin="miter" stroke-miterlimit="10" stroke-dasharray="" stroke-dashoffset="0" font-family="Sans Serif" font-weight="normal" text-anchor="start" style="mix-blend-mode: normal"><tspan x="0" dy="0">C</tspan></text><path d="" fill="#000000" stroke="none" stroke-width="0.5"/><path d="M431.00416,96.6646c0.33541,0.67082 -0.33541,1.00623 -0.33541,1.00623l-0.95087,0.44761c-0.52454,0.76529 -1.48475,1.11301 -2.22647,1.67038c-0.69082,0.51912 -0.5099,1.78463 -1.20821,2.29362c-0.28517,0.20785 -0.79665,-0.27313 -1.05802,-0.03604c-0.31169,0.28274 -0.01453,0.89531 -0.26335,1.2347c-1.08787,1.48384 -2.84916,2.43284 -4.18638,3.76688c-3.6367,2.09744 -5.82851,5.92981 -8.26005,8.9835c-0.74586,0.9367 0.03545,1.47299 -0.49145,2.49607c-0.45343,0.88043 -1.68409,1.19816 -2.10881,2.0928c-1.11985,2.3589 -1.60958,5.94486 -1.60958,8.60188c-0.0108,0.86827 -0.39636,1.69107 -0.57127,2.54161c-0.46603,2.26613 0.01571,5.13581 0.01571,7.45839c0,5.55556 0,11.11111 0,16.66667c0,4.22481 -0.92384,9.60051 -0.02006,13.71657c0.96311,4.3863 2.23889,9.30955 2.22071,13.88261c0.70445,1.30952 1.88755,1.97681 2.22808,3.52587c0.33024,1.50224 0.49795,3.412 1.19809,4.82356c0.62881,1.26774 1.90424,2.19921 2.64961,3.30577c0.74836,1.111 0.11516,2.68903 0.97737,3.57933c2.12569,2.19495 3.56176,6.284 4.82787,9.45786c0.76954,1.15101 1.10775,2.89547 1.8728,3.91638c0.2871,0.38311 0.96373,0.39454 1.17693,0.82319c0.52585,1.0573 -0.00993,3.77568 0.98225,4.66073c0.30901,0.27564 0.83046,0.25108 1.11111,0.55556c1.12866,1.22446 0.35393,2.23609 1.20515,3.44813c0.4697,0.66881 1.47657,1.52881 1.88411,2.19553c0.83934,1.3731 1.35822,3.58803 2.82693,4.21585c0,0 0.67082,0.33541 0.33541,1.00623c-0.33541,0.67082 -1.00623,0.33541 -1.00623,0.33541c-1.89926,-1.03994 -2.34867,-2.96843 -3.43853,-4.77942c-0.77224,-1.2832 -2.0954,-1.94498 -2.51155,-3.49686c-0.19365,-0.72214 0.30344,-1.27602 -0.35595,-1.86421c-0.68496,-0.611 -1.60845,-1.14377 -1.86627,-2.02468c-0.26315,-0.89914 -0.10328,-2.77895 -0.48481,-3.53681c-0.18226,-0.36204 -0.80643,-0.29379 -1.0453,-0.62125c-0.82138,-1.12602 -1.1948,-2.90382 -2.01352,-4.13532c-1.26953,-3.16314 -2.70784,-6.93631 -4.61914,-9.1571c-1.11256,-1.29271 -0.17693,-2.51211 -1.08242,-3.71117c-0.86857,-1.15016 -2.12048,-2.17928 -2.7895,-3.54834c-0.72903,-1.49185 -1.02174,-3.54718 -1.30299,-5.14294c-0.22144,-1.25636 -1.63081,-2.32941 -2.21636,-3.47413c-0.01774,-4.61832 -1.30806,-9.46738 -2.22373,-13.89517c-0.88812,-4.29453 -0.02006,-9.67399 -0.02006,-14.0612c0,-7.59214 -0.04316,-15.18577 0,-22.77778c0.00847,-1.48988 0.57881,-2.47055 0.55556,-3.88889c0,-2.78502 0.49645,-6.71229 1.72376,-9.1759c0.45022,-0.90374 1.67824,-1.24879 2.13383,-2.14984c0.42885,-0.84815 0.10567,-2.00132 0.65904,-2.774c0.28849,-0.40282 0.88778,-0.47832 1.22604,-0.84035c0.76894,-0.82295 0.94226,-2.36165 1.62111,-3.27622c1.40597,-1.89417 3.6746,-3.98379 5.69469,-5.14931c1.26115,-1.25132 2.85024,-2.10658 3.89252,-3.46846c0.33401,-0.43643 0.16737,-1.17575 0.57383,-1.54565c0.28715,-0.26132 0.82911,0.16005 1.1642,-0.03604c0.6841,-0.40033 0.40749,-1.64054 1.01401,-2.15082c0.70709,-0.59489 1.71206,-0.8897 2.21797,-1.66295l1.27135,-0.6635c0,0 0.67082,-0.33541 1.00623,0.33541z" fill="#000000" stroke="none" stroke-width="0.5"/><path d="M437.60131,208.78851c0,8.57316 -7.60147,15.52307 -16.97836,15.52307c-9.37689,0 -16.97836,-6.94991 -16.97836,-15.52307c0,-8.57316 7.60147,-15.52307 16.97836,-15.52307c9.37689,0 16.97836,6.94991 16.97836,15.52307z" fill="#ff0000" stroke="none" stroke-width="0"/><text transform="translate(413.49538,215.81609) scale(0.5,0.5)" font-size="40" xml:space="preserve" fill="#ffffff" fill-rule="nonzero" stroke="none" stroke-width="1" stroke-linecap="butt" stroke-linejoin="miter" stroke-miterlimit="10" stroke-dasharray="" stroke-dashoffset="0" font-family="Sans Serif" font-weight="normal" text-anchor="start" style="mix-blend-mode: normal"><tspan x="0" dy="0">A</tspan></text><text transform="translate(134.22224,268.27778) scale(1.24636,1.24636)" font-size="40" xml:space="preserve" fill="#00a927" fill-rule="nonzero" stroke="none" stroke-width="1" stroke-linecap="butt" stroke-linejoin="miter" stroke-miterlimit="10" stroke-dasharray="" stroke-dashoffset="0" font-family="Sans Serif" font-weight="normal" text-anchor="start" style="mix-blend-mode: normal"><tspan x="0" dy="0">Leaphy</tspan></text></g></g></svg>