<svg version="1.1" xmlns="http://www.w3.org/2000/svg" xmlns:xlink="http://www.w3.org/1999/xlink" width="448.7473" height="316.32385" viewBox="0,0,448.7473,316.32385"><g transform="translate(-22.85401,-20.11884)"><g data-paper-data="{&quot;isPaintingLayer&quot;:true}" fill-rule="nonzero" stroke-linecap="butt" stroke-linejoin="miter" stroke-miterlimit="10" stroke-dasharray="" stroke-dashoffset="0" style="mix-blend-mode: normal"><path d="M257.9375,282.59887v-245.60938h0.61642" fill="none" stroke="#000000" stroke-width="1.5"/><path d="M337.9375,39.15744v248.83205c0,0 -0.03963,11.40228 -13.15833,15.01883c-14.88218,4.10271 -43.43995,0.48117 -50.59167,0.48117c-12.13152,0 -15.68739,-13.08035 -16.18571,-15.20887" fill="none" stroke="#000000" stroke-width="1.5"/><path d="M174.23621,287.98949h-0.79871v-250.5c0,0 1.78567,-4.42287 6.61533,-8.05587c2.98943,-2.24873 7.76198,-4.3864 12.14175,-5.41396c16.40639,-3.84921 39.75671,-0.53017 48.99292,-0.53017c4.37903,0 8.89517,2.30877 12.33939,5.65016c2.20781,2.14189 3.97517,4.69222 4.98361,6.29149" fill="none" stroke="#000000" stroke-width="1.5"/><path d="M258.25484,40.16819v247.8213h-0.56183" fill="none" stroke="#000000" stroke-width="1.5"/><path d="M173.18122,36.98949h0.25628v252c0,0 -8.76464,17 -19.21875,17c-7.64365,0 -54.73812,0 -70,0c-25.46183,0 -24.78125,-17 -24.78125,-17v-249.0027" fill="none" stroke="#000000" stroke-width="1.5"/><path d="M338.44007,291.98948h-0.50257v-251c0,0 7.83695,-19 27.25,-19c11.35616,0 50.27242,-3.46828 71.17289,1.79819c16.19428,4.08062 16.57711,17.20181 16.57711,17.20181v247.60938c0,0 3.39959,24.65291 -9.54948,35.74941c-4.71445,4.03997 -8.59594,10.21088 -18.59749,11.34442c-106.85671,1.05406 -323.19397,0.88744 -364.71161,0.42364c-3.65742,0.13698 -14.67993,0.82651 -22.86394,-2.41388c-5.24052,-2.07494 -8.8784,-7.51635 -10.11256,-9.98928c-4.49217,-9.00111 -3.37519,-29.47923 -3.37519,-29.47923l0.15818,-254.24446c0,0 2.63696,-7.33364 9.15854,-10.13029c3.7446,-1.60579 10.45116,-1.70304 12.84146,-1.70304c1.47578,0 6.87154,2.40643 8.73826,3.83129c3.68752,2.81467 4.76174,8.00205 4.76174,8.00205v253.11114" fill="none" stroke="#000000" stroke-width="1.5"/><path d="M471.60131,257.78852c0,8.57316 -7.60147,15.52307 -16.97836,15.52307c-9.37689,0 -16.97836,-6.94991 -16.97836,-15.52307c0,-8.57316 7.60147,-15.52307 16.97836,-15.52307c9.37689,0 16.97836,6.94991 16.97836,15.52307z" fill="#ff0000" stroke="none" stroke-width="0"/><text transform="translate(448.49538,264.3161) scale(0.5,0.5)" font-size="40" xml:space="preserve" fill="#ffffff" fill-rule="nonzero" stroke="none" stroke-width="1" stroke-linecap="butt" stroke-linejoin="miter" stroke-miterlimit="10" stroke-dasharray="" stroke-dashoffset="0" font-family="Sans Serif" font-weight="normal" text-anchor="start" style="mix-blend-mode: normal"><tspan x="0" dy="0">A</tspan></text><path d="M353.50142,159.31018c0,7.76942 -6.71272,14.06778 -14.99326,14.06778c-8.28055,0 -14.99326,-6.29836 -14.99326,-14.06778c0,-7.76942 6.71271,-14.06778 14.99326,-14.06778c8.28055,0 14.99326,6.29836 14.99326,14.06778z" fill="#00ff15" stroke="none" stroke-width="0"/><path d="M188.06313,225.27588c0,8.30524 -7.1671,15.03798 -16.00817,15.03798c-8.84107,0 -16.00817,-6.73273 -16.00817,-15.03798c0,-8.30524 7.1671,-15.03798 16.00817,-15.03798c8.84107,0 16.00817,6.73273 16.00817,15.03798z" fill="#005eff" stroke="none" stroke-width="0"/><text transform="translate(332.49538,166.31609) scale(0.5,0.5)" font-size="40" xml:space="preserve" fill="#ffffff" fill-rule="nonzero" stroke="none" stroke-width="1" stroke-linecap="butt" stroke-linejoin="miter" stroke-miterlimit="10" stroke-dasharray="" stroke-dashoffset="0" font-family="Sans Serif" font-weight="normal" text-anchor="start" style="mix-blend-mode: normal"><tspan x="0" dy="0">B</tspan></text><text transform="translate(165.99538,232.8161) scale(0.5,0.5)" font-size="40" xml:space="preserve" fill="#ffffff" fill-rule="nonzero" stroke="none" stroke-width="1" stroke-linecap="butt" stroke-linejoin="miter" stroke-miterlimit="10" stroke-dasharray="" stroke-dashoffset="0" font-family="Sans Serif" font-weight="normal" text-anchor="start" style="mix-blend-mode: normal"><tspan x="0" dy="0">C</tspan></text></g></g></svg>