<svg version="1.1" xmlns="http://www.w3.org/2000/svg" xmlns:xlink="http://www.w3.org/1999/xlink" width="456.3829" height="321.06379" viewBox="0,0,456.3829,321.06379"><g transform="translate(-8.61706,-12.76595)"><g data-paper-data="{&quot;isPaintingLayer&quot;:true}" fill-rule="nonzero" stroke-linecap="butt" stroke-linejoin="miter" stroke-miterlimit="10" stroke-dasharray="" stroke-dashoffset="0" style="mix-blend-mode: normal"><path d="M72.41848,24.09043h345.31543" fill="none" stroke="#000000" stroke-width="1.5"/><path d="M447.25,58.12833v241.48783" fill="none" stroke="#000000" stroke-width="1.5"/><path d="M72.31699,330.09043h345.12538" fill="none" stroke="#000000" stroke-width="1.5"/><path d="M39.25,294.43128v-239.28008" fill="none" stroke="#000000" stroke-width="1.5"/><path d="M413.4,24.69043c0,-0.75 0.75,-0.75 0.75,-0.75h0.75c2.77763,0 5.84463,-0.3817 8.59164,0.00562c3.18167,0.4486 5.9037,1.7891 8.91633,2.79014c6.74649,2.69859 10.44246,8.43976 12.68494,15.16722c1.27252,2.64135 1.4779,6.29355 1.80147,9.19538c0.28714,2.5751 1.00562,4.89902 1.00562,7.59164c0,0 0,0.75 -0.75,0.75c-0.75,0 -0.75,-0.75 -0.75,-0.75c0,-2.63676 -0.71452,-4.88046 -0.99438,-7.40836c-0.30057,-2.71507 -0.43056,-6.38 -1.69853,-8.80463c-2.14794,-6.44383 -5.43311,-11.77999 -11.81505,-14.33277c-2.91622,-0.97503 -5.50684,-2.26326 -8.58367,-2.70985c-2.67611,-0.38844 -5.69882,0.00562 -8.40837,0.00562h-0.75c0,0 -0.75,0 -0.75,-0.75z" fill="#000000" stroke="none" stroke-width="0.5"/><path d="M75.75,23.52464c0,0.75 -0.75,0.75 -0.75,0.75l-0.21283,-0.02239c-4.43999,1.08118 -8.86485,2.66308 -12.90098,4.69341c-4.03726,1.61491 -8.94663,2.37931 -12.50029,4.85847c-1.66797,1.16363 -2.55579,3.85201 -3.57276,5.54341c-2.62125,3.27926 -4.76427,6.68806 -5.80689,10.79679c-0.43456,1.71249 0.02006,4.17909 0.02006,5.94611c0,0 0,0.75 -0.75,0.75c-0.75,0 -0.75,-0.75 -0.75,-0.75c0,-1.9053 -0.44003,-4.43219 0.02007,-6.29073c1.05793,-4.27345 3.31243,-7.90823 6.03522,-11.30848c1.14691,-1.91613 2.06516,-4.54949 3.92724,-5.90395c3.58292,-2.60618 8.65661,-3.36745 12.76287,-5.00996c4.14122,-2.0549 8.62419,-3.62432 13.15166,-4.78027l0.57664,-0.02239c0,0 0.75,0 0.75,0.75z" fill="#000000" stroke="none" stroke-width="0.5"/><path d="M76.53948,329.84043c0,0.75 -0.75,0.75 -0.75,0.75h-0.19737c-0.55687,0 -1.11373,-0.00207 -1.67059,-0.00562c-2.97044,-0.74261 -5.99563,-1.73209 -8.96225,-2.38286c-3.30987,-0.72607 -7.50011,-0.4475 -10.13464,-3.08203c-1.97917,-0.9592 -5.85068,-2.10414 -7.26202,-3.90222c-1.35392,-1.72492 -2.92099,-3.61361 -3.84762,-5.69552c-0.85098,-1.91195 -1.04121,-4.08303 -1.98419,-5.94786c-1.38313,-5.41726 -3.00711,-10.22857 -3.00711,-15.85232c0,0 0,-0.75 0.75,-0.75c0.75,0 0.75,0.75 0.75,0.75c0,5.45981 1.62892,10.05481 2.91394,15.3319c0.92054,1.86072 1.12247,3.99959 1.96318,5.89425c0.89365,2.01397 2.43407,3.62527 3.65237,5.35711c1.13081,1.60746 5.25175,2.73079 6.94851,3.59778c2.49021,2.49021 6.47736,2.13713 9.6022,2.83902c2.92511,0.65703 5.87629,1.62283 8.8009,2.35398c0.49576,-0.00399 0.99154,-0.00562 1.48731,-0.00562h0.19737c0,0 0.75,0 0.75,0.75z" fill="#000000" stroke="none" stroke-width="0.5"/><path d="M414.71053,330.23517c0,-0.75 0.75,-0.75 0.75,-0.75l0.01547,0.02239c3.98889,-0.97096 7.92311,0.368 11.7806,-1.56074c2.20074,-0.44015 4.14978,-2.07689 5.90251,-3.43613c3.98447,-3.08995 7.16189,-5.94495 10.28809,-9.8771c2.60674,-5.27353 3.23701,-9.99482 3.23701,-15.77999c0,0 0,-0.75 0.75,-0.75c0.75,0 0.75,0.75 0.75,0.75c0,6.05038 -0.70468,11.09957 -3.47351,16.58842c-3.26704,4.05723 -6.51097,7.03873 -10.63296,10.25447c-1.86151,1.45224 -3.99239,3.20075 -6.33434,3.66914c-3.9343,1.96715 -7.89208,0.56104 -11.90361,1.59715l-0.37927,0.02239c0,0 -0.75,0 -0.75,-0.75z" fill="#000000" stroke="none" stroke-width="0.5"/><path d="M433.72337,157.65955v-35.10638h31.27659v35.10638z" fill="#ff8e00" stroke="none" stroke-width="NaN"/><path d="M171.38299,64.46808v-28.7234h33.82978v28.7234z" fill="#ff8e00" stroke="none" stroke-width="0"/><path d="M8.61706,175.53189v-26.17021h24.25532v26.17021z" fill="#ff8e00" stroke="none" stroke-width="0"/><path d="M198.1915,333.82974v-8.93617h79.14892v8.93617z" fill="#ff8e00" stroke="none" stroke-width="0"/><path d="M404.36167,33.82978v-21.06383h19.78723v21.06383z" fill="#ff8e00" stroke="none" stroke-width="0"/></g></g></svg>