<svg version="1.1" xmlns="http://www.w3.org/2000/svg" xmlns:xlink="http://www.w3.org/1999/xlink" width="327.09922" height="252.86085" viewBox="0,0,327.09922,252.86085"><g transform="translate(-89.63628,-88.28975)"><g data-paper-data="{&quot;isPaintingLayer&quot;:true}" fill="#000000" fill-rule="nonzero" stroke="none" stroke-width="0.5" stroke-linecap="butt" stroke-linejoin="miter" stroke-miterlimit="10" stroke-dasharray="" stroke-dashoffset="0" style="mix-blend-mode: normal"><path d="M148.28228,97.2426c-0.07523,0.26555 -0.1828,0.5437 -0.32817,0.83445c-1.67705,3.3541 -5.03115,1.67705 -5.03115,1.67705c-4.00702,-2.14463 -4.78541,-1.4068 -9.32295,-1.6041c-0.85945,-0.03737 -1.75961,-0.58793 -2.56494,-0.28545c-0.88261,0.3315 -1.09881,1.72298 -2,2c-2.34168,0.7198 -5.0134,-0.61673 -7.34837,0.12455c-0.83149,0.26397 -3.89722,3.46928 -4.1152,3.60085c-1.03181,0.62274 -2.32289,0.68548 -3.40453,1.21698c-2.35786,1.15862 -4.15143,3.23497 -6.3743,4.63523c-0.99227,0.62507 -2.50128,0.4165 -3.26751,1.30432c-0.64958,0.75266 -0.08278,2.01509 -0.40809,2.95457c-0.48776,1.40866 -1.47242,2.60577 -2,4c-1.55415,4.10717 -1.9903,7.9806 -4,12c-1.49398,5.93172 -0.76707,12.60251 -0.76707,18.69895c0,3.43281 -0.51175,7.15714 -0.0281,10.54181c0.05494,0.38446 1.26058,5.04023 1.64678,5.81062c0.62687,1.25048 1.7808,2.23294 2.22041,3.56088c0.56531,1.70761 -0.21325,3.81629 0.73258,5.34629c1.47957,2.39342 3.52671,4.41452 4.92174,6.85817c1.48835,2.60711 2.91751,6.08093 5.72808,7.69229c0.78397,0.44946 1.78729,0.37872 2.59547,0.78302c2.84368,1.42256 5.67916,3.07965 8.80255,3.67517c1.0407,-0.00523 7.64593,-0.05725 8.23117,0.03017c3.47725,0.51946 6.86788,3.10977 10.06729,3.9868c1.54091,0.4224 3.29458,-0.31409 4.78631,0.25825c0.88762,0.34056 5.66025,5.15705 6.01027,6.02146c0.34286,0.84673 0.29005,6.04952 0.28545,7.43506c-0.02808,8.45227 -2.98051,15.7893 -6.28545,23.43506c-0.97456,2.25459 -1.05854,4.82829 -2.03512,7.08201c-0.89661,2.06918 -3.16512,3.41798 -3.84033,5.56961c-0.25116,0.80035 0.27954,1.69196 0.11248,2.51399c-0.48291,2.37627 -1.79701,4.65618 -3.51164,6.37081c-1.02378,3.41537 -0.90719,7.14217 -1.48836,10.62919c-0.9824,5.89438 -3.60033,12.91351 -1.23703,18.96425c0.39614,1.01424 1.36886,1.71459 1.85429,2.68926c0.87434,1.75556 1.51156,3.62042 2.20236,5.45597c0.92691,2.46292 0.60343,5.36085 1.86187,7.67201c1.06298,1.95219 2.95378,3.32441 4.35621,5.04898c2.15473,2.64966 4.14205,5.49325 6.71773,7.7359c4.81271,4.19044 10.45868,6.85116 15.51449,10.64301c2.42228,1.20007 4.67802,2.79703 7.24552,3.64292c2.68402,0.88428 5.61776,0.97597 8.21805,2.08248c1.26904,0.54002 2.35399,1.51685 3.68307,1.88512c3.62452,1.00431 7.5089,0.474 11.25139,0.84768c1.69126,0.16887 3.30635,0.85704 5,1c4.5274,0.38217 9.08699,-0.01825 13.63048,-0.01825c3.87683,0 7.77008,0.37477 11.63048,0.01825c1.69247,-0.1563 3.3071,-0.84838 5,-1c3.98405,-0.35681 8.01585,0.35571 12,0c5.63462,-0.50307 11.07941,-2.82689 16.60591,-3.93968c5.75735,-1.15927 11.42333,-1.20267 17.23328,-2.04088c4.41361,-0.63035 8.77506,-1.69226 13.22103,-2.02491c2.46675,-0.18457 4.96041,0.26174 7.42094,0.00739c4.90153,-0.50668 9.67119,-1.90589 14.53549,-2.69347c4.77262,-0.77273 9.68718,-0.86769 14.33849,-2.1869c2.36988,-0.67215 4.45069,-2.14343 6.78748,-2.92288c1.66258,-0.55457 3.47202,-0.55339 5.15013,-1.059c1.74066,-0.52446 3.31186,-1.5429 5.06631,-2.01921c1.86143,-0.50536 3.90253,-0.24744 5.71479,-0.90776c1.78,-0.64856 3.12464,-2.1869 4.86061,-2.94549c2.81605,-1.23058 6.12706,-0.90883 9,-2c1.12354,-0.42673 1.87442,-1.57867 3,-2c1.56004,-0.58397 3.37983,-0.28777 4.90443,-0.95885c1.3753,-0.60536 2.28789,-1.9654 3.55915,-2.76654c4.77083,-3.00657 9.72931,-6.37716 14.77883,-8.85222c3.27311,-3.41856 6.35557,-6.66941 9.29263,-10.3353c1.64229,-2.04982 2.53907,-1.5884 3.25035,-4.48412c0.23854,-0.97113 -0.27472,-2.03848 0,-3c0.40953,-1.43336 1.55929,-2.57592 2,-4c0.50647,-1.63656 -0.10032,-3.42529 -0.10032,-5.13843c0,-3.12318 -0.35894,-6.2692 0.01825,-9.36952c0.7481,-6.149 1.97151,-12.16541 3.03017,-18.23117c0.9431,-5.40364 -0.04842,-11.89066 -0.04842,-17.39932c0.03344,-1.71281 0.43658,-3.45862 0.10032,-5.13843c-0.49157,-2.45563 -2.35952,-4.47145 -2.97469,-6.89907c-0.39584,-1.56208 -0.41433,-3.21632 -0.92265,-4.74549c-0.50854,-1.52983 -1.66383,-2.80417 -2.10266,-4.35544c-0.48529,-1.71551 0.07166,-3.71619 -0.75724,-5.29461c-0.92579,-1.76294 -2.25022,-3.31169 -3.05762,-5.1319c-1.11893,-2.52252 -1.64897,-5.29304 -2.88955,-7.75801c-1.99976,-3.97342 -4.77651,-8.25149 -6.19292,-12.46004c-0.51772,-1.53828 -0.3575,-3.25857 -0.91752,-4.78195c-0.35786,-0.97347 -1.27297,-1.64742 -1.77886,-2.55284c-1.67397,-2.99593 -3.30771,-6.01438 -5,-9c-1.2783,-2.25524 -1.80569,-4.88335 -3.07826,-7.14183c-1.45074,-2.57469 -4.64206,-5.4207 -6.57836,-7.36294c-1.42819,-2.19251 -3.54445,-3.8722 -5.55697,-5.54451c-3.45153,-2.86805 -6.29037,-6.23987 -10.28339,-8.51128c-0.99193,-0.56425 -2.25555,-0.53959 -3.23109,-1.13173c-1.72076,-1.04449 -2.81898,-3.04463 -4.67608,-3.82126c-4.42665,-1.85119 -9.35003,-2.2582 -13.84763,-3.92966c-3.52177,-1.30881 -6.78894,-4.36704 -10.15237,-6.07034c-3.12713,-1.58363 -7.02825,-1.84766 -10.31494,-2.74431c-3.76518,-1.02719 -7.45452,-2.60095 -11.3468,-2.88715c-3.55397,-0.26132 -7.12713,0.01278 -10.6907,0.01278c-6.04189,0 -12.6165,0.60507 -18.60068,-0.04842c-1.04786,-0.11443 -1.95452,-0.86555 -3,-1c-10.34612,-1.33055 -21.30291,0.86669 -31.70862,0.03564c-6.81751,-0.54448 -13.53235,-2.46842 -20.38306,-2.92584c-2.56736,-0.17142 -5.15658,0.14688 -7.7187,-0.09032c-1.38162,-0.12791 -2.66839,-0.79598 -4.04107,-0.99841c-1.19937,-0.17688 -2.48145,0.24074 -3.63456,-0.13355c-1.28519,-0.41716 -2.1982,-1.60518 -3.43039,-2.15967c-2.57957,-1.16082 -5.76,-0.67943 -8.48292,-0.67943c-5.94362,0 -12.6884,-0.89773 -18.54181,-0.0281c-1.35945,0.20197 -2.63851,0.81232 -4,1c-6.61413,0.91175 -13.87116,0.35873 -20.77591,0.1207zM138.99345,90.60206c1.103,-0.95207 2.60656,-0.95207 2.60656,-0.95207c6,0 14,0 20,0c2.18062,0 4.38486,0.34855 6.54181,0.0281c1.35945,-0.20197 2.63851,-0.81232 4,-1c6.21747,-0.85707 13.1651,-0.0281 19.45819,-0.0281c4.03193,0 7.63478,-0.27378 11.51708,1.32057c0.97457,0.40023 1.57393,1.49598 2.56961,1.84033c0.74636,0.25813 1.5828,-0.23916 2.36544,-0.13355c1.38641,0.18708 2.68238,0.87377 4.0754,1.00266c2.41662,0.2236 4.85915,-0.11418 7.28066,0.04808c6.89183,0.46182 13.64667,2.3853 20.50111,2.93468c8.76894,0.70282 17.87487,-0.05305 26.6907,-0.01278c1.86694,0.00853 3.74744,-0.17749 5.60068,0.04842c1.04635,0.12755 1.95261,0.88134 3,1c5.55126,0.62891 11.79097,-0.04842 17.39932,-0.04842c1.81029,0 11.12015,-0.00233 11.3093,0.01278c4.3297,0.34584 8.46267,1.97033 12.6532,3.11285c3.86211,1.05298 8.02656,1.44504 11.68506,3.25569c3.26035,1.61361 6.45335,4.70226 9.84763,5.92966c4.61616,1.66924 9.66418,2.08254 14.15237,4.07034c2.06275,0.91358 3.38172,3.03096 5.32392,4.17874c0.83274,0.49212 1.92996,0.38682 2.76891,0.86827c4.5129,2.58983 7.81761,6.23048 11.71661,9.48872c2.33288,1.9495 4.73343,3.9415 6.44303,6.45549c3.07215,3.06241 5.20467,4.79725 7.42164,8.63706c1.24246,2.15194 1.68039,4.70559 2.92174,6.85817c1.71443,2.97296 3.33997,5.99632 5,9c0.6612,1.19637 1.73418,2.16991 2.22114,3.44716c0.63282,1.65984 0.5259,3.53111 1.08248,5.21805c1.83334,5.55671 5.89894,10.42801 7.97004,15.91596c0.46847,1.24134 0.40768,2.65396 0.94748,3.86599c0.7714,1.73206 2.12243,3.15848 2.94238,4.8681c0.98303,2.04965 0.61146,4.52162 1.24276,6.70539c0.38037,1.31574 1.46313,2.34559 1.89734,3.64456c0.56682,1.69571 0.64958,3.51849 1.07735,5.25451c0.61555,2.49812 2.52106,4.57798 3.02531,7.10093c0.44831,2.24307 0.06688,4.57438 0.10032,6.86157c0,5.96951 0.89879,12.7123 -0.04842,18.60068c-0.95325,5.92587 -2.19872,11.77554 -2.96983,17.76883c-0.62954,4.89299 1.20167,10.68699 -0.08207,15.49206c-0.38477,1.4402 -1.59047,2.56664 -2,4c-0.27472,0.96152 0.2987,2.04565 0,3c-0.88523,2.82833 -2.89984,5.20044 -4.74965,7.51588c-3.3375,4.17762 -6.84523,7.91011 -10.70737,11.6647c-5.21574,2.65383 -10.24448,6.06104 -15.22117,9.14778c-1.55609,0.96515 -2.76993,2.48448 -4.44085,3.23346c-1.58196,0.7091 -3.47269,0.4315 -5.09557,1.04115c-1.12508,0.42264 -1.87315,1.58208 -3,2c-2.8814,1.06863 -6.20036,0.73253 -9,2c-1.81547,0.82191 -3.26612,2.37457 -5.13939,3.05451c-1.99887,0.72552 -4.23429,0.53047 -6.28521,1.09224c-1.70919,0.46817 -3.23693,1.46937 -4.93369,1.98079c-1.64901,0.49703 -3.42869,0.4879 -5.0627,1.03221c-2.40664,0.80168 -4.55688,2.30235 -6.9997,2.98591c-4.92835,1.37906 -10.11697,1.55275 -15.16894,2.37015c-5.00415,0.80966 -9.91548,2.22095 -14.95709,2.74949c-2.51258,0.26341 -5.05946,-0.17731 -7.57906,0.00739c-4.2987,0.31512 -8.51208,1.36538 -12.77897,1.97509c-5.62211,0.79578 -11.21677,0.81786 -16.76672,1.95912c-5.79161,1.19096 -11.47955,3.51435 -17.39409,4.06032c-3.98307,0.36768 -8.01695,-0.36784 -12,0c-1.69247,0.1563 -3.3071,0.84838 -5,1c-0.26776,0.02398 -11.87804,0.01825 -12.36952,0.01825c-0.51747,0 -14.07762,0.00578 -14.36952,-0.01825c-1.69394,-0.13944 -3.30879,-0.83061 -5,-1c-4.24562,-0.42523 -8.62844,-0.04315 -12.74861,-1.15232c-1.54729,-0.41654 -2.84581,-1.47972 -4.31693,-2.11488c-2.45273,-1.05896 -5.24999,-1.06518 -7.78195,-1.91752c-0.43232,-0.14554 -8.26968,-4.11277 -8.75448,-4.35708c-5.37026,-4.0277 -11.38607,-6.87601 -16.48551,-11.35699c-2.9134,-2.56006 -5.27747,-5.69579 -7.67951,-8.74079c-1.72038,-2.18088 -3.93643,-4.02495 -5.24655,-6.47434c-1.35175,-2.52723 -1.13565,-5.643 -2.13813,-8.32799c-1.94093,-5.19848 -4.43407,-8.22104 -5.21056,-13.92033c-0.78759,-5.78081 1.10866,-11.44111 2.03017,-16.9702c0.7728,-4.63678 0.93603,-8.81504 2.51164,-13.37081c1.53103,-1.53103 2.25235,-1.61996 2.48836,-3.62919c0.13563,-1.15467 -0.26681,-2.38701 0.11248,-3.48601c0.83286,-2.41315 3.16676,-4.07856 4.15967,-6.43039c0.93238,-2.20845 1.02697,-4.71188 1.96488,-6.91799c2.85444,-6.71409 5.74216,-13.15202 5.71455,-20.56494c-0.00568,-1.52461 0.83193,-3.14163 0.28545,-4.56494c-0.16994,-0.4426 -0.85092,-0.44912 -1.1871,-0.78341c-0.34028,-0.33837 -0.33633,-1.08177 -0.80263,-1.19512c-1.11117,-0.27012 -2.32288,0.46646 -3.42652,0.16704c-3.37189,-0.9148 -6.25673,-3.4605 -9.71989,-3.92199c-2.56694,-0.34206 -5.17922,0.04099 -7.76883,0.03017c-1.99424,-0.41135 -4.08325,-0.50041 -5.98272,-1.23404c-1.88492,-0.72802 -3.40727,-2.18745 -5.21473,-3.09078c-1.07803,-0.53878 -2.37895,-0.58403 -3.40453,-1.21698c-3.9087,-2.41232 -6.1061,-6.52113 -8.27192,-10.30771c-1.4503,-2.53561 -3.68681,-4.57345 -5.07826,-7.14183c-0.69287,-1.27892 -1.10773,-2.71086 -1.37991,-4.13972c-0.15696,-0.82402 0.38007,-1.71898 0.11248,-2.51399c-0.32105,-0.95386 -1.33042,-1.53847 -1.77959,-2.43912c-0.75565,-1.51519 -2.15578,-6.80702 -2.35322,-8.18938c-0.52721,-3.69118 -0.0281,-7.72577 -0.0281,-11.45819c0,-7.20415 -0.51161,-14.28884 1.23293,-21.30105c2.04767,-4.09534 2.43037,-7.77963 4,-12c0.51965,-1.39721 1.44983,-2.61453 2,-4c0.65086,-1.63904 0.47615,-3.67973 1.59191,-5.04543c1.14862,-1.40591 3.24279,-1.65804 4.73249,-2.69568c2.55023,-1.77635 4.85473,-3.95734 7.6257,-5.36477c0.8057,-0.40923 1.8189,-0.32089 2.59547,-0.78302c2.10465,-1.25244 3.56618,-3.61037 5.8848,-4.39915c2.09944,-0.71422 4.57563,0.90427 6.65163,0.12455c0.88261,-0.3315 1.09881,-1.72298 2,-2c1.06444,-0.3272 7.81165,-0.30617 9.43506,-0.28545c0.46077,0.00588 0.92734,-0.02349 1.39344,-0.04793z"/></g></g></svg>